<svg version="1.2" xmlns="http://www.w3.org/2000/svg" viewBox="0 0 15 15" width="15" height="15"><style>.s0{fill:#cccccc}</style><path class="s0" d="m1.9 0h11.2c1 0 1.9 0.8 1.9 1.9v11.2c0 1.1-0.9 1.9-1.9 1.9h-11.2c-1 0-1.9-0.8-1.9-1.9v-11.2c0-1.1 0.9-1.9 1.9-1.9zm9 1.7c-0.3 0-0.6 0.3-0.6 0.6v1.7c0 0.3 0.3 0.6 0.6 0.6h1.7c0.4 0 0.7-0.3 0.7-0.6v-1.7c0-0.3-0.3-0.6-0.7-0.6h-1.7zm2.4 4.6h-1.3q0.2 0.7 0.2 1.3c0 2.5-2.1 4.5-4.7 4.5c-2.6 0-4.6-2-4.6-4.5q0-0.6 0.1-1.3h-1.3v6.4c0 0.3 0.2 0.6 0.6 0.6h10.4c0.3 0 0.6-0.3 0.6-0.6v-6.4zm-5.8-1.8c-1.6 0-3 1.4-3 3c0 1.6 1.4 2.9 3 2.9c1.7 0 3-1.3 3-2.9c0-1.6-1.3-3-3-3z" /></svg>