<svg version="1.2" xmlns="http://www.w3.org/2000/svg" viewBox="0 0 12 19" width="12" height="19"><style>.s0{fill:#cccccc}</style><path class="s0" d="m5 13.4c-1.5-0.2-2.9-0.5-4.1-1.4q-0.3-0.2-0.5-0.4q-0.7-0.7-0.1-1.6c0.3-0.4 0.9-0.6 1.5-0.3q0.2 0.1 0.4 0.2c2.2 1.5 5.3 1.5 7.5 0.1q0.3-0.3 0.7-0.4c0.6-0.1 1.1 0.1 1.4 0.5c0.3 0.5 0.3 1-0.1 1.4q-1 0.9-2.2 1.4c-0.8 0.2-1.6 0.4-2.5 0.5c0.1 0.1 0.2 0.2 0.3 0.3q1.7 1.6 3.4 3.3c0.4 0.3 0.5 0.8 0.3 1.2c-0.2 0.5-0.8 0.8-1.3 0.8c-0.3 0-0.6-0.2-0.8-0.4c-0.9-0.8-1.8-1.7-2.6-2.5c-0.2-0.2-0.4-0.2-0.6 0q-1.3 1.3-2.6 2.5c-0.4 0.4-0.9 0.5-1.4 0.3c-0.5-0.2-0.8-0.7-0.8-1.2c0-0.3 0.2-0.6 0.5-0.8q1.7-1.6 3.4-3.3q0.1-0.1 0.2-0.2zm1-3.8c-2.8 0-5.1-2.2-5.1-4.8c0.1-2.7 2.3-4.8 5.1-4.8c2.8 0 5.1 2.2 5 4.9c0 2.6-2.2 4.7-5 4.7zm2.5-4.8c0-1.3-1.1-2.3-2.5-2.3c-1.4 0-2.5 1-2.5 2.3c0 1.3 1.1 2.4 2.5 2.4c1.4 0 2.5-1.1 2.5-2.4z" /></svg>