<svg version="1.2" xmlns="http://www.w3.org/2000/svg" viewBox="0 0 16 13" width="16" height="13"><style>.s0{fill:#cccccc}</style><path class="s0" d="m14.1 2.1q1-0.2 1.9-0.6q-0.7 1-1.6 1.7v0.5c0 4.3-3.3 9.3-9.4 9.3c-1.8 0-3.5-0.5-5-1.5q0.4 0.1 0.8 0.1c1.5 0 2.9-0.6 4.1-1.4c-1.5-0.1-2.7-1-3.1-2.3q0.3 0 0.6 0q0.5 0 0.9-0.1c-1.5-0.3-2.7-1.6-2.7-3.2q0.7 0.3 1.5 0.4c-0.8-0.6-1.4-1.6-1.4-2.8q0-0.9 0.4-1.6c1.6 2 4.1 3.3 6.8 3.4q-0.1-0.3-0.1-0.7c0-1.8 1.5-3.3 3.3-3.3c0.9 0 1.8 0.4 2.4 1q1.1-0.2 2.1-0.8c-0.3 0.8-0.8 1.4-1.5 1.9z" /></svg>