<svg version="1.2" xmlns="http://www.w3.org/2000/svg" viewBox="0 0 23 13" width="23" height="13"><style>.s0{fill:#cccccc}</style><path class="s0" d="m19.8 8.3c0.8 0.7 1.6 1.4 2.2 2.2q0.5 0.6 0.9 1.2c0.3 0.6 0 1.3-0.6 1.3h-3.3c-0.9 0.1-1.6-0.3-2.1-0.9c-0.5-0.5-0.9-1-1.4-1.4q-0.2-0.3-0.6-0.6c-0.4-0.3-0.8-0.2-1.1 0.3c-0.3 0.5-0.3 1-0.4 1.6c0 0.7-0.2 0.9-1 1c-1.7 0.1-3.3-0.2-4.8-1c-1.3-0.8-2.3-1.9-3.2-3.1c-1.8-2.3-3.1-4.9-4.3-7.5q-0.4-0.9 0.6-0.9q1.6-0.1 3.3 0c0.4 0 0.7 0.2 0.9 0.6q0.9 2.2 2.2 4.1c0.3 0.4 0.5 0.7 0.9 1q0.5 0.4 0.8-0.3q0.2-0.4 0.2-0.8c0.1-1.1 0.1-2.1 0-3.1c-0.1-0.6-0.5-1-1.1-1.1c-0.3-0.1-0.3-0.2-0.1-0.4c0.2-0.3 0.5-0.5 1-0.5h3.8c0.6 0.1 0.7 0.4 0.8 1v4.2c0 0.2 0.1 0.9 0.5 1.1c0.4 0.1 0.6-0.2 0.8-0.4c0.9-1 1.5-2.1 2.1-3.3q0.4-0.8 0.7-1.6c0.2-0.4 0.4-0.6 0.9-0.6h3.6q0.2 0 0.3 0.1c0.6 0.1 0.8 0.3 0.6 0.9c-0.3 1-0.9 1.8-1.4 2.5c-0.6 0.9-1.3 1.7-1.9 2.5c-0.5 0.8-0.5 1.2 0.2 1.9z" /></svg>